<svg xmlns="http://www.w3.org/2000/svg" width="1080" height="1920" viewBox="0 0 1080 1920"><defs><filter id="glow" x="-100%" y="-100%" width="300%" height="300%"><feGaussianBlur stdDeviation="7" result="b"/><feMerge><feMergeNode in="b"/><feMergeNode in="SourceGraphic"/></feMerge></filter><filter id="shadow" x="-30%" y="-30%" width="160%" height="160%"><feDropShadow dx="0" dy="12" stdDeviation="16" flood-color="#000" flood-opacity=".58"/></filter><linearGradient id="panel" x1="0" y1="0" x2="1" y2="1"><stop stop-color="#0b1f19" stop-opacity=".96"/><stop offset="1" stop-color="#06110e" stop-opacity=".76"/></linearGradient><linearGradient id="accent" x1="0" y1="0" x2="1" y2="1"><stop stop-color="#7fffc8"/><stop offset="1" stop-color="#50d2c1"/></linearGradient></defs><g fill="none" stroke="#50d2c1" opacity=".9"><path d="M28 133Q28 28 133 28H208" stroke-width="3"/><path d="M872 28H947Q1052 28 1052 133" stroke-width="3"/><path d="M28 1787Q28 1892 133 1892H208" stroke-width="3"/><path d="M872 1892H947Q1052 1892 1052 1787" stroke-width="3"/><path d="M238 1878q70-28 140 0t140 0t140 0" stroke="#7fffc8" stroke-width="2" opacity=".55"/></g><g transform="translate(40 48)"><rect width="46" height="46" rx="11" fill="#06110e" fill-opacity=".88" stroke="#1b5b51" stroke-width="2"/><path d="M31.74 13.799999999999999c-3.22-4.6000000000000005-7.82-6.44-13.34-6.44-10.58 0-16.56 8.74-16.56 22.54s5.98 22.54 16.56 22.54c5.98 0 10.58-2.3000000000000003 13.799999999999999-6.8999999999999995" fill="none" stroke="#50d2c1" stroke-width="5.06" stroke-linecap="round"/><text x="64" y="21" fill="#effff7" font-family="Arial,Helvetica,sans-serif" font-size="15" font-weight="700" letter-spacing="3">CIVAL SYSTEMS</text><text x="64" y="42" fill="#50d2c1" font-family="Consolas,monospace" font-size="8" font-weight="700" letter-spacing="2">SIGNAL GLASS</text></g><g transform="translate(716 54)"><rect width="324" height="38" rx="19" fill="#06110e" fill-opacity=".82" stroke="#50d2c1" stroke-opacity=".7"/><circle cx="20" cy="19" r="4" fill="#50d2c1" filter="url(#glow)"/><text x="36" y="24" fill="#50d2c1" font-family="Consolas,monospace" font-size="10" font-weight="700" letter-spacing="1.5">PAPER MODE / LIVE</text></g><g transform="translate(40 1842)"><rect width="1000" height="42" rx="21" fill="#06110e" fill-opacity=".8" stroke="#1b5b51"/><rect width="6" height="42" rx="3" fill="#50d2c1"/><text x="28" y="27.3" fill="#effff7" font-family="Consolas,monospace" font-size="9" font-weight="700" letter-spacing="1.3">CIVAL SYSTEMS IN ACTION</text><text x="980" y="27.3" text-anchor="end" fill="#9eaaa5" font-family="Consolas,monospace" font-size="7">DEMO · NOT FINANCIAL ADVICE</text></g><g filter="url(#shadow)"><rect x="40" y="230" width="1000" height="562" rx="28" fill="#06110e" fill-opacity="0" stroke="#1b5b51" stroke-width="2"/><path d="M68 230H420M660 792H1012" stroke="#7fffc8" stroke-width="4" stroke-linecap="round"/><g transform="translate(58 764)"><rect width="171" height="28" rx="14" fill="#06110e" fill-opacity=".92" stroke="#1b5b51"/><text x="18" y="18" fill="#50d2c1" font-family="Consolas,monospace" font-size="9" font-weight="700" letter-spacing="1.3">PRODUCT CAPTURE</text></g></g><g filter="url(#shadow)"><rect x="40" y="850" width="1000" height="850" rx="28" fill="#06110e" fill-opacity="0.8" stroke="#1b5b51" stroke-width="2"/><path d="M68 850H420M660 1700H1012" stroke="#7fffc8" stroke-width="4" stroke-linecap="round"/><g transform="translate(58 1672)"><rect width="150" height="28" rx="14" fill="#06110e" fill-opacity=".92" stroke="#1b5b51"/><text x="18" y="18" fill="#50d2c1" font-family="Consolas,monospace" font-size="9" font-weight="700" letter-spacing="1.3">LIVE CHAT</text></g></g></svg>