<svg xmlns="http://www.w3.org/2000/svg" width="1920" height="1080" viewBox="0 0 1920 1080"><defs><filter id="glow" x="-100%" y="-100%" width="300%" height="300%"><feGaussianBlur stdDeviation="7" result="b"/><feMerge><feMergeNode in="b"/><feMergeNode in="SourceGraphic"/></feMerge></filter><filter id="shadow" x="-30%" y="-30%" width="160%" height="160%"><feDropShadow dx="0" dy="12" stdDeviation="16" flood-color="#000" flood-opacity=".58"/></filter><linearGradient id="panel" x1="0" y1="0" x2="1" y2="1"><stop stop-color="#0b1f19" stop-opacity=".96"/><stop offset="1" stop-color="#06110e" stop-opacity=".76"/></linearGradient><linearGradient id="accent" x1="0" y1="0" x2="1" y2="1"><stop stop-color="#7fffc8"/><stop offset="1" stop-color="#4ade9f"/></linearGradient></defs><g fill="none" stroke="#4ade9f" stroke-width="2"><path d="M24 116V24H116M1804 24H1896V116M24 964V1056H116M1804 1056H1896V964"/></g><g fill="#174d3b" opacity=".55"><circle cx="40" cy="1038" r="2"/><circle cx="58" cy="1038" r="2"/><circle cx="76" cy="1038" r="2"/><circle cx="94" cy="1038" r="2"/><circle cx="112" cy="1038" r="2"/><circle cx="130" cy="1038" r="2"/><circle cx="148" cy="1038" r="2"/><circle cx="166" cy="1038" r="2"/><circle cx="184" cy="1038" r="2"/><circle cx="202" cy="1038" r="2"/><circle cx="220" cy="1038" r="2"/></g><g transform="translate(42 34)"><rect width="54" height="54" rx="11" fill="#06110e" fill-opacity=".88" stroke="#174d3b" stroke-width="2"/><path d="M37.26 16.2c-3.7800000000000002-5.4-9.180000000000001-7.5600000000000005-15.659999999999998-7.5600000000000005-12.42 0-19.439999999999998 10.26-19.439999999999998 26.46s7.0200000000000005 26.46 19.439999999999998 26.46c7.0200000000000005 0 12.42-2.7 16.2-8.1" fill="none" stroke="#4ade9f" stroke-width="5.94" stroke-linecap="round"/><text x="72" y="21" fill="#effff7" font-family="Arial,Helvetica,sans-serif" font-size="15" font-weight="700" letter-spacing="3">CIVAL SYSTEMS</text><text x="72" y="42" fill="#4ade9f" font-family="Consolas,monospace" font-size="8" font-weight="700" letter-spacing="2">SYSTEM GRID</text></g><g transform="translate(1580 36)"><rect width="300" height="38" rx="8" fill="#06110e" fill-opacity=".82" stroke="#4ade9f" stroke-opacity=".7"/><circle cx="20" cy="19" r="4" fill="#4ade9f" filter="url(#glow)"/><text x="36" y="24" fill="#4ade9f" font-family="Consolas,monospace" font-size="10" font-weight="700" letter-spacing="1.5">PAPER MODE / LIVE</text></g><g transform="translate(38 1018)"><rect width="1844" height="36" rx="18" fill="#06110e" fill-opacity=".8" stroke="#174d3b"/><rect width="6" height="36" rx="3" fill="#4ade9f"/><text x="28" y="23.400000000000002" fill="#effff7" font-family="Consolas,monospace" font-size="10" font-weight="700" letter-spacing="1.3">CIVAL SYSTEMS IN ACTION</text><text x="1824" y="23.400000000000002" text-anchor="end" fill="#9eaaa5" font-family="Consolas,monospace" font-size="9">DEMO · NOT FINANCIAL ADVICE</text></g><g filter="url(#shadow)"><rect x="40" y="126" width="1400" height="790" rx="14" fill="#06110e" fill-opacity="0" stroke="#174d3b" stroke-width="2"/><path d="M40 180V126H94M1386 126H1440V180M40 862V916H94M1386 916H1440V862" fill="none" stroke="#4ade9f" stroke-width="3"/><g transform="translate(58 888)"><rect width="171" height="28" rx="14" fill="#06110e" fill-opacity=".92" stroke="#174d3b"/><text x="18" y="18" fill="#4ade9f" font-family="Consolas,monospace" font-size="9" font-weight="700" letter-spacing="1.3">PRODUCT CAPTURE</text></g></g><g filter="url(#shadow)"><rect x="1470" y="126" width="390" height="790" rx="14" fill="#06110e" fill-opacity="0.8" stroke="#174d3b" stroke-width="2"/><path d="M1470 180V126H1524M1806 126H1860V180M1470 862V916H1524M1806 916H1860V862" fill="none" stroke="#4ade9f" stroke-width="3"/><g transform="translate(1488 888)"><rect width="150" height="28" rx="14" fill="#06110e" fill-opacity=".92" stroke="#174d3b"/><text x="18" y="18" fill="#4ade9f" font-family="Consolas,monospace" font-size="9" font-weight="700" letter-spacing="1.3">LIVE CHAT</text></g></g></svg>